<svg data-meters="2.5 6" xmlns="http://www.w3.org/2000/svg" viewBox="-40 -106 78 108">
  <g class="variant">
    <path class="foliage" fill="#55844a" d="M-8.5 0L-8.5 -99C-8.5 -103.69 8.5 -103.69 8.5 -99L8.5 0ZM-3.4 -40C-19 -40 -25.5 -44 -25.5 -54L-25.5 -78C-25.5 -81.59 -12.5 -81.59 -12.5 -78L-12.5 -50Q-12.5 -40 -3.4 -40ZM3.4 -56C21 -56 28 -60 28 -70L28 -90C28 -93.87 14 -93.87 14 -90L14 -66Q14 -56 3.4 -56Z"/>
    <path fill="rgba(0,0,0,0.12)" d="M-0.85 0L-0.85 -93.05C-0.85 -95.4 7.65 -95.4 7.65 -93.05L7.65 0Z"/>
    <path fill="rgba(0,0,0,0.11)" d="M-24.33 -52L-24.33 -74.1C-24.33 -75.54 -19.13 -75.54 -19.13 -74.1L-19.13 -52Z"/>
    <path fill="rgba(0,0,0,0.11)" d="M21.14 -68L21.14 -85.8C21.14 -87.35 26.74 -87.35 26.74 -85.8L26.74 -68Z"/>
    <path fill="rgba(255,255,255,0.11)" d="M-6.38 -3L-6.38 -93.05C-6.38 -93.99 -2.98 -93.99 -2.98 -93.05L-2.98 -3Z"/>
  </g>
  <g class="variant">
    <path class="foliage" fill="#55844a" d="M-9 0L-9 -90C-9 -94.97 9 -94.97 9 -90L9 0ZM3.6 -34C20 -34 26.5 -38 26.5 -48L26.5 -70C26.5 -73.59 13.5 -73.59 13.5 -70L13.5 -44Q13.5 -34 3.6 -34Z"/>
    <path fill="rgba(0,0,0,0.12)" d="M-0.9 0L-0.9 -83.7C-0.9 -86.19 8.1 -86.19 8.1 -83.7L8.1 0Z"/>
    <path fill="rgba(0,0,0,0.11)" d="M20.13 -46L20.13 -66.1C20.13 -67.54 25.33 -67.54 25.33 -66.1L25.33 -46Z"/>
    <path fill="rgba(255,255,255,0.11)" d="M-6.75 -3L-6.75 -83.7C-6.75 -84.69 -3.15 -84.69 -3.15 -83.7L-3.15 -3Z"/>
  </g>
  <g class="variant">
    <path class="foliage" fill="#55844a" d="M-8 0L-8 -96C-8 -100.42 8 -100.42 8 -96L8 0ZM-3.2 -48C-17 -48 -23 -50 -23 -60L-23 -82C-23 -85.31 -11 -85.31 -11 -82L-11 -56Q-11 -48 -3.2 -48ZM3.2 -36C18 -36 24 -40 24 -50L24 -68C24 -71.31 12 -71.31 12 -68L12 -46Q12 -36 3.2 -36Z"/>
    <path fill="rgba(0,0,0,0.12)" d="M-0.8 0L-0.8 -90.4C-0.8 -92.61 7.2 -92.61 7.2 -90.4L7.2 0Z"/>
    <path fill="rgba(0,0,0,0.11)" d="M-21.92 -58L-21.92 -78.4C-21.92 -79.73 -17.12 -79.73 -17.12 -78.4L-17.12 -58Z"/>
    <path fill="rgba(0,0,0,0.11)" d="M18.12 -48L18.12 -64.4C18.12 -65.73 22.92 -65.73 22.92 -64.4L22.92 -48Z"/>
    <path fill="rgba(255,255,255,0.11)" d="M-6 -3L-6 -90.4C-6 -91.28 -2.8 -91.28 -2.8 -90.4L-2.8 -3Z"/>
  </g>
</svg>
