<svg data-meters="4 8" xmlns="http://www.w3.org/2000/svg" viewBox="-40 -100 80 102">
  <!-- Variant 1: gnarled bare tree, branches reaching up and out (Kenney foliagePack_025/032) -->
  <g class="variant">
    <path class="trunk" fill="#6b5340" d="M-4 0Q-3 -30 -1.6 -62Q-1 -76 0 -90Q0.8 -76 1.6 -62Q2.6 -30 4 0Z"/>
    <path fill="rgba(0,0,0,0.18)" d="M0 -90Q0.8 -76 1.6 -62Q2.6 -30 4 0L1.2 0Q0.4 -30 0 -62Z"/>
    <!-- left branches -->
    <path class="trunk" fill="none" stroke="#6b5340" stroke-width="2.6" stroke-linecap="round" d="M-1.4 -58Q-12 -64 -22 -80"/>
    <path class="trunk" fill="none" stroke="#6b5340" stroke-width="1.8" stroke-linecap="round" d="M-14 -71Q-16 -78 -22 -82"/>
    <path class="trunk" fill="none" stroke="#6b5340" stroke-width="2.2" stroke-linecap="round" d="M-1 -38Q-10 -42 -17 -54"/>
    <!-- right branches -->
    <path class="trunk" fill="none" stroke="#6b5340" stroke-width="2.6" stroke-linecap="round" d="M1.2 -64Q12 -72 19 -90"/>
    <path class="trunk" fill="none" stroke="#6b5340" stroke-width="1.8" stroke-linecap="round" d="M12 -78Q16 -82 21 -84"/>
    <path class="trunk" fill="none" stroke="#6b5340" stroke-width="2.2" stroke-linecap="round" d="M1 -44Q9 -48 14 -60"/>
    <!-- crown twigs -->
    <path class="trunk" fill="none" stroke="#6b5340" stroke-width="1.6" stroke-linecap="round" d="M0 -90Q-3 -96 -6 -99M0 -90Q3 -97 7 -100M0 -90L0 -100"/>
  </g>
  <!-- Variant 2: split-trunk dead tree, fewer thicker limbs (Kenney foliagePack_033) -->
  <g class="variant">
    <path class="trunk" fill="#6b5340" d="M-4.4 0Q-3.4 -24 -2 -44L-9 -82L-5.6 -84L-0.4 -50Q0 -52 0.6 -50L7 -86L10.2 -84L2.2 -44Q3.2 -24 4.4 0Z"/>
    <path fill="rgba(0,0,0,0.18)" d="M0.6 -50L7 -86L10.2 -84L2.2 -44Q3.2 -24 4.4 0L1.6 0Q0.6 -28 0.2 -48Z"/>
    <path class="trunk" fill="none" stroke="#6b5340" stroke-width="1.8" stroke-linecap="round" d="M-6 -68Q-14 -74 -18 -86M-6 -68Q-9 -80 -10 -90"/>
    <path class="trunk" fill="none" stroke="#6b5340" stroke-width="1.8" stroke-linecap="round" d="M5 -70Q14 -76 18 -88M5 -70Q9 -82 10 -92"/>
    <path class="trunk" fill="none" stroke="#6b5340" stroke-width="1.4" stroke-linecap="round" d="M-8 -82L-12 -92M7 -84L11 -94"/>
  </g>
  <!-- Variant 3: short stout snag, broken top, scraggly twigs (Kenney foliagePack_035) -->
  <g class="variant">
    <path class="trunk" fill="#6b5340" d="M-4.6 0Q-3.4 -26 -2 -52Q-1.4 -62 -1 -70Q0 -74 1.2 -70Q1.8 -60 2.6 -52Q3.6 -26 4.6 0Z"/>
    <path fill="rgba(0,0,0,0.18)" d="M1.2 -70Q1.8 -60 2.6 -52Q3.6 -26 4.6 0L1.8 0Q0.8 -28 0.4 -56Z"/>
    <path class="trunk" fill="none" stroke="#6b5340" stroke-width="2.4" stroke-linecap="round" d="M-1.6 -46Q-12 -52 -24 -58"/>
    <path class="trunk" fill="none" stroke="#6b5340" stroke-width="1.6" stroke-linecap="round" d="M-16 -55Q-20 -60 -26 -62M-12 -53L-15 -62"/>
    <path class="trunk" fill="none" stroke="#6b5340" stroke-width="2.4" stroke-linecap="round" d="M1.4 -56Q13 -64 22 -76"/>
    <path class="trunk" fill="none" stroke="#6b5340" stroke-width="1.6" stroke-linecap="round" d="M14 -67Q18 -70 24 -70M10 -62L13 -72"/>
    <path class="trunk" fill="none" stroke="#6b5340" stroke-width="1.6" stroke-linecap="round" d="M0 -70Q-4 -78 -8 -82M0 -70Q4 -80 9 -84"/>
  </g>
</svg>
