<svg data-meters="8 16" xmlns="http://www.w3.org/2000/svg" viewBox="-40 -125 95 129">
  <g class="variant">
    <path class="trunk" fill="#6b5340" d="M-6 0Q-2.82 -39 10.8 -78L17.2 -78Q6.18 -39 6 0Z"/>
    <path fill="rgba(0,0,0,0.12)" d="M0.6 0Q4.08 -39 14.32 -78L17.2 -78Q6.18 -39 6 0Z"/>
    <path fill="none" stroke="rgba(0,0,0,0.10)" stroke-width="1.6" stroke-linecap="round" d="M-3.67 -12.94Q0.99 -10.94 5.65 -12.94"/>
    <path fill="none" stroke="rgba(0,0,0,0.10)" stroke-width="1.6" stroke-linecap="round" d="M-1.51 -27.39Q2.7 -25.39 6.92 -27.39"/>
    <path fill="none" stroke="rgba(0,0,0,0.10)" stroke-width="1.6" stroke-linecap="round" d="M1.37 -41.83Q5.15 -39.83 8.93 -41.83"/>
    <path fill="none" stroke="rgba(0,0,0,0.10)" stroke-width="1.6" stroke-linecap="round" d="M4.99 -56.28Q8.33 -54.28 11.66 -56.28"/>
    <path class="foliage" fill="#55844a" d="M11.95 -83.64Q-7.08 -79.36 -21.71 -46Q-4.2 -71.47 16.05 -72.36Z"/>
    <path fill="rgba(0,0,0,0.12)" d="M11.95 -83.64Q-7.08 -79.36 -21.71 -46Q-4.2 -71.47 16.05 -72.36Z"/>
    <path class="foliage" fill="#55844a" d="M12.45 -72.2Q32.04 -73.14 48.77 -48.88Q34.21 -81.25 15.55 -83.8Z"/>
    <path fill="rgba(0,0,0,0.12)" d="M12.45 -72.2Q32.04 -73.14 48.77 -48.88Q34.21 -81.25 15.55 -83.8Z"/>
    <path class="foliage" fill="#55844a" d="M16.05 -72.36Q37.14 -86.99 53.47 -73.46Q34.27 -94.89 11.95 -83.64Z"/>
    <path class="foliage" fill="#55844a" d="M16.22 -84.11Q-7.18 -95.83 -27.35 -73.25Q-10.3 -87.28 11.78 -71.89Z"/>
    <path class="foliage" fill="#55844a" d="M18.91 -74.56Q30.06 -98.41 36.94 -98.77Q23.18 -103.23 9.09 -81.44Z"/>
    <path class="foliage" fill="#55844a" d="M18.91 -81.44Q4.82 -103.23 -8.94 -98.77Q-2.06 -98.41 9.09 -74.56Z"/>
    <path class="foliage" fill="#55844a" d="M19.5 -78Q17.85 -100.78 14 -106.9Q10.15 -100.78 8.5 -78Z"/>
    <path class="trunk" fill="#6b5340" d="M9.5 -75Q14 -85 18.5 -75Q14 -72 9.5 -75Z"/>
    <path fill="#6b5340" d="M10.4 -71C10.4 -72.44 11.56 -73.6 13 -73.6C14.44 -73.6 15.6 -72.44 15.6 -71C15.6 -69.56 14.44 -68.4 13 -68.4C11.56 -68.4 10.4 -69.56 10.4 -71Z"/>
    <path fill="rgba(255,255,255,0.12)" d="M10.92 -72.04C10.92 -72.69 11.44 -73.21 12.09 -73.21C12.74 -73.21 13.26 -72.69 13.26 -72.04C13.26 -71.39 12.74 -70.87 12.09 -70.87C11.44 -70.87 10.92 -71.39 10.92 -72.04Z"/>
    <path fill="#6b5340" d="M15.4 -70C15.4 -71.44 16.56 -72.6 18 -72.6C19.44 -72.6 20.6 -71.44 20.6 -70C20.6 -68.56 19.44 -67.4 18 -67.4C16.56 -67.4 15.4 -68.56 15.4 -70Z"/>
    <path fill="rgba(255,255,255,0.12)" d="M15.92 -71.04C15.92 -71.69 16.44 -72.21 17.09 -72.21C17.74 -72.21 18.26 -71.69 18.26 -71.04C18.26 -70.39 17.74 -69.87 17.09 -69.87C16.44 -69.87 15.92 -70.39 15.92 -71.04Z"/>
    <path fill="#6b5340" d="M6.6 -69C6.6 -70.33 7.67 -71.4 9 -71.4C10.33 -71.4 11.4 -70.33 11.4 -69C11.4 -67.67 10.33 -66.6 9 -66.6C7.67 -66.6 6.6 -67.67 6.6 -69Z"/>
    <path fill="rgba(255,255,255,0.12)" d="M7.08 -69.96C7.08 -70.56 7.56 -71.04 8.16 -71.04C8.76 -71.04 9.24 -70.56 9.24 -69.96C9.24 -69.36 8.76 -68.88 8.16 -68.88C7.56 -68.88 7.08 -69.36 7.08 -69.96Z"/>
  </g>
  <g class="variant">
    <path class="trunk" fill="#6b5340" d="M-6.5 0Q-4.28 -41 1.8 -82L8.2 -82Q5.48 -41 6.5 0Z"/>
    <path fill="rgba(0,0,0,0.12)" d="M0.65 0Q3.2 -41 5.32 -82L8.2 -82Q5.48 -41 6.5 0Z"/>
    <path fill="none" stroke="rgba(0,0,0,0.10)" stroke-width="1.6" stroke-linecap="round" d="M-4.65 -13.69Q0.35 -11.69 5.36 -13.69"/>
    <path fill="none" stroke="rgba(0,0,0,0.10)" stroke-width="1.6" stroke-linecap="round" d="M-3.52 -28.87Q0.97 -26.87 5.45 -28.87"/>
    <path fill="none" stroke="rgba(0,0,0,0.10)" stroke-width="1.6" stroke-linecap="round" d="M-2.13 -44.06Q1.84 -42.06 5.81 -44.06"/>
    <path fill="none" stroke="rgba(0,0,0,0.10)" stroke-width="1.6" stroke-linecap="round" d="M-0.47 -59.24Q2.97 -57.24 6.42 -59.24"/>
    <path class="foliage" fill="#55844a" d="M2.95 -87.64Q-17.11 -83.22 -32.59 -48.32Q-14.24 -75.33 7.05 -76.36Z"/>
    <path fill="rgba(0,0,0,0.12)" d="M2.95 -87.64Q-17.11 -83.22 -32.59 -48.32Q-14.24 -75.33 7.05 -76.36Z"/>
    <path class="foliage" fill="#55844a" d="M3.15 -76.29Q24.63 -76.01 43.04 -47.64Q27.22 -84 6.85 -87.71Z"/>
    <path fill="rgba(0,0,0,0.12)" d="M3.15 -76.29Q24.63 -76.01 43.04 -47.64Q27.22 -84 6.85 -87.71Z"/>
    <path class="foliage" fill="#55844a" d="M6.55 -76.2Q29.46 -89.49 47.5 -73.59Q27.29 -97.6 3.45 -87.8Z"/>
    <path class="foliage" fill="#55844a" d="M6.68 -88.28Q-18.26 -98.46 -39.43 -73.21Q-20.62 -89.67 3.32 -75.72Z"/>
    <path class="foliage" fill="#55844a" d="M9.6 -85.86Q-6.63 -107.44 -22 -101.57Q-13.07 -102.04 0.4 -78.14Z"/>
    <path class="foliage" fill="#55844a" d="M9.6 -78.14Q23.07 -102.04 32 -101.57Q16.63 -107.44 0.4 -85.86Z"/>
    <path class="foliage" fill="#55844a" d="M10.23 -83.7Q2.2 -107.63 -6.74 -110.54Q-5.12 -105.25 -0.23 -80.3Z"/>
    <path class="foliage" fill="#55844a" d="M10.5 -82Q8.85 -106.12 5 -113.68Q1.15 -106.12 -0.5 -82Z"/>
    <path class="trunk" fill="#6b5340" d="M0.5 -79Q5 -89 9.5 -79Q5 -76 0.5 -79Z"/>
    <path fill="#6b5340" d="M2.4 -75C2.4 -76.44 3.56 -77.6 5 -77.6C6.44 -77.6 7.6 -76.44 7.6 -75C7.6 -73.56 6.44 -72.4 5 -72.4C3.56 -72.4 2.4 -73.56 2.4 -75Z"/>
    <path fill="rgba(255,255,255,0.12)" d="M2.92 -76.04C2.92 -76.69 3.44 -77.21 4.09 -77.21C4.74 -77.21 5.26 -76.69 5.26 -76.04C5.26 -75.39 4.74 -74.87 4.09 -74.87C3.44 -74.87 2.92 -75.39 2.92 -76.04Z"/>
    <path fill="#6b5340" d="M7.4 -74C7.4 -75.44 8.56 -76.6 10 -76.6C11.44 -76.6 12.6 -75.44 12.6 -74C12.6 -72.56 11.44 -71.4 10 -71.4C8.56 -71.4 7.4 -72.56 7.4 -74Z"/>
    <path fill="rgba(255,255,255,0.12)" d="M7.92 -75.04C7.92 -75.69 8.44 -76.21 9.09 -76.21C9.74 -76.21 10.26 -75.69 10.26 -75.04C10.26 -74.39 9.74 -73.87 9.09 -73.87C8.44 -73.87 7.92 -74.39 7.92 -75.04Z"/>
    <path fill="#6b5340" d="M-1.4 -74C-1.4 -75.33 -0.33 -76.4 1 -76.4C2.33 -76.4 3.4 -75.33 3.4 -74C3.4 -72.67 2.33 -71.6 1 -71.6C-0.33 -71.6 -1.4 -72.67 -1.4 -74Z"/>
    <path fill="rgba(255,255,255,0.12)" d="M-0.92 -74.96C-0.92 -75.56 -0.44 -76.04 0.16 -76.04C0.76 -76.04 1.24 -75.56 1.24 -74.96C1.24 -74.36 0.76 -73.88 0.16 -73.88C-0.44 -73.88 -0.92 -74.36 -0.92 -74.96Z"/>
  </g>
  <g class="variant">
    <path class="trunk" fill="#6b5340" d="M-5.5 0Q-1.49 -36 19 -72L25 -72Q6.77 -36 5.5 0Z"/>
    <path fill="rgba(0,0,0,0.12)" d="M0.55 0Q4.84 -36 22.3 -72L25 -72Q6.77 -36 5.5 0Z"/>
    <path fill="none" stroke="rgba(0,0,0,0.10)" stroke-width="1.6" stroke-linecap="round" d="M-2.73 -11.83Q1.55 -9.83 5.83 -11.83"/>
    <path fill="none" stroke="rgba(0,0,0,0.10)" stroke-width="1.6" stroke-linecap="round" d="M0.36 -25.17Q4.25 -23.17 8.14 -25.17"/>
    <path fill="none" stroke="rgba(0,0,0,0.10)" stroke-width="1.6" stroke-linecap="round" d="M4.6 -38.5Q8.09 -36.5 11.59 -38.5"/>
    <path fill="none" stroke="rgba(0,0,0,0.10)" stroke-width="1.6" stroke-linecap="round" d="M9.98 -51.83Q13.09 -49.83 16.19 -51.83"/>
    <path class="foliage" fill="#55844a" d="M19.68 -76.98Q3.42 -71.67 -8.81 -40.63Q6.68 -64.69 24.32 -67.02Z"/>
    <path fill="rgba(0,0,0,0.12)" d="M19.68 -76.98Q3.42 -71.67 -8.81 -40.63Q6.68 -64.69 24.32 -67.02Z"/>
    <path class="foliage" fill="#55844a" d="M20.86 -66.62Q39.49 -68.43 55.26 -46.23Q41.09 -75.96 23.14 -77.38Z"/>
    <path fill="rgba(0,0,0,0.12)" d="M20.86 -66.62Q39.49 -68.43 55.26 -46.23Q41.09 -75.96 23.14 -77.38Z"/>
    <path class="foliage" fill="#55844a" d="M23.55 -77.8Q1.84 -86.55 -16.64 -64.35Q-0.34 -78.44 20.45 -66.2Z"/>
    <path class="foliage" fill="#55844a" d="M24.32 -67.02Q42.57 -81.9 56.44 -70.96Q39.31 -88.88 19.68 -76.98Z"/>
    <path class="foliage" fill="#55844a" d="M26.21 -75.54Q11.52 -95.05 -2.43 -89.71Q5.62 -90.1 17.79 -68.46Z"/>
    <path class="foliage" fill="#55844a" d="M26.76 -69.25Q35.51 -92.14 40.5 -92.94Q28.84 -95.99 17.24 -74.75Z"/>
    <path class="foliage" fill="#55844a" d="M26.98 -72.44Q23.95 -93.68 19.21 -99.08Q16.98 -93.07 17.02 -71.56Z"/>
    <path class="trunk" fill="#6b5340" d="M17.5 -69Q22 -79 26.5 -69Q22 -66 17.5 -69Z"/>
    <path fill="#6b5340" d="M17.4 -65C17.4 -66.44 18.56 -67.6 20 -67.6C21.44 -67.6 22.6 -66.44 22.6 -65C22.6 -63.56 21.44 -62.4 20 -62.4C18.56 -62.4 17.4 -63.56 17.4 -65Z"/>
    <path fill="rgba(255,255,255,0.12)" d="M17.92 -66.04C17.92 -66.69 18.44 -67.21 19.09 -67.21C19.74 -67.21 20.26 -66.69 20.26 -66.04C20.26 -65.39 19.74 -64.87 19.09 -64.87C18.44 -64.87 17.92 -65.39 17.92 -66.04Z"/>
    <path fill="#6b5340" d="M22.4 -63C22.4 -64.44 23.56 -65.6 25 -65.6C26.44 -65.6 27.6 -64.44 27.6 -63C27.6 -61.56 26.44 -60.4 25 -60.4C23.56 -60.4 22.4 -61.56 22.4 -63Z"/>
    <path fill="rgba(255,255,255,0.12)" d="M22.92 -64.04C22.92 -64.69 23.44 -65.21 24.09 -65.21C24.74 -65.21 25.26 -64.69 25.26 -64.04C25.26 -63.39 24.74 -62.87 24.09 -62.87C23.44 -62.87 22.92 -63.39 22.92 -64.04Z"/>
  </g>
</svg>
