<svg data-meters="60 90" xmlns="http://www.w3.org/2000/svg" viewBox="-30 -110 60 114">
  <g class="variant">
    <path class="trunk" fill="#6b5340" d="M-16 0Q-14 -4 -13 -9L-4.5 -56L4.5 -56L13 -9Q14 -4 16 0Z"/>
    <path fill="rgba(0,0,0,0.13)" d="M0.2 -9L1.6 -56L4.5 -56L13 -9Q14 -4 16 0L3.9 0Z"/>
    <path fill="rgba(255,255,255,0.07)" d="M-16 0Q-14 -4 -13 -9L-4.5 -56L-2 -56L-5.9 -9L-6.5 0Z"/>
    <path class="foliage2" fill="#6f9c54" d="M-3.4 -46.8C-3.4 -51.5 0.4 -55.2 5 -55.2C9.7 -55.2 13.4 -51.5 13.4 -46.8C13.4 -42.2 9.7 -38.4 5 -38.4C0.4 -38.4 -3.4 -42.2 -3.4 -46.8Z"/>
    <path class="foliage2" fill="#6f9c54" d="M-4.6 -63.4C-4.6 -69.8 0.6 -75 6.9 -75C13.3 -75 18.5 -69.8 18.5 -63.4C18.5 -57.1 13.3 -51.9 6.9 -51.9C0.6 -51.9 -4.6 -57.1 -4.6 -63.4Z"/>
    <path class="foliage2" fill="#6f9c54" d="M-4 -79.6C-4 -85.1 0.5 -89.5 6 -89.5C11.5 -89.5 16 -85.1 16 -79.6C16 -74.1 11.5 -69.6 6 -69.6C0.5 -69.6 -4 -74.1 -4 -79.6Z"/>
    <path class="foliage2" fill="#6f9c54" d="M-2.6 -95.5C-2.6 -99.1 0.3 -101.9 3.9 -101.9C7.4 -101.9 10.3 -99.1 10.3 -95.5C10.3 -91.9 7.4 -89.1 3.9 -89.1C0.3 -89.1 -2.6 -91.9 -2.6 -95.5Z"/>
    <path class="foliage" fill="#55844a" d="M-8.4 -46C-8.4 -50.6 -4.6 -54.4 0 -54.4C4.6 -54.4 8.4 -50.6 8.4 -46C8.4 -41.4 4.6 -37.6 0 -37.6C-4.6 -37.6 -8.4 -41.4 -8.4 -46Z"/>
    <path class="foliage" fill="#55844a" d="M-11 -54.1C-11 -60.2 -6.1 -65.1 0 -65.1C6.1 -65.1 11 -60.2 11 -54.1C11 -48.1 6.1 -43.2 0 -43.2C-6.1 -43.2 -11 -48.1 -11 -54.1Z"/>
    <path class="foliage" fill="#55844a" d="M-15.1 -53C-15.1 -57 -11.9 -60.3 -7.9 -60.3C-3.9 -60.3 -0.7 -57 -0.7 -53C-0.7 -49 -3.9 -45.8 -7.9 -45.8C-11.9 -45.8 -15.1 -49 -15.1 -53Z"/>
    <path class="foliage" fill="#55844a" d="M0.7 -53C0.7 -57 3.9 -60.3 7.9 -60.3C11.9 -60.3 15.1 -57 15.1 -53C15.1 -49 11.9 -45.8 7.9 -45.8C3.9 -45.8 0.7 -49 0.7 -53Z"/>
    <path class="foliage" fill="#55844a" d="M-11.5 -62.3C-11.5 -68.7 -6.4 -73.8 0 -73.8C6.4 -73.8 11.5 -68.7 11.5 -62.3C11.5 -55.9 6.4 -50.8 0 -50.8C-6.4 -50.8 -11.5 -55.9 -11.5 -62.3Z"/>
    <path class="foliage" fill="#55844a" d="M-17.1 -61.1C-17.1 -65.3 -13.7 -68.7 -9.5 -68.7C-5.3 -68.7 -1.8 -65.3 -1.8 -61.1C-1.8 -56.9 -5.3 -53.5 -9.5 -53.5C-13.7 -53.5 -17.1 -56.9 -17.1 -61.1Z"/>
    <path class="foliage" fill="#55844a" d="M1.8 -61.1C1.8 -65.3 5.3 -68.7 9.5 -68.7C13.7 -68.7 17.1 -65.3 17.1 -61.1C17.1 -56.9 13.7 -53.5 9.5 -53.5C5.3 -53.5 1.8 -56.9 1.8 -61.1Z"/>
    <path class="foliage" fill="#55844a" d="M-10.8 -70.4C-10.8 -76.4 -5.9 -81.2 0 -81.2C5.9 -81.2 10.8 -76.4 10.8 -70.4C10.8 -64.5 5.9 -59.7 0 -59.7C-5.9 -59.7 -10.8 -64.5 -10.8 -70.4Z"/>
    <path class="foliage" fill="#55844a" d="M-14.8 -69.4C-14.8 -73.3 -11.7 -76.5 -7.7 -76.5C-3.8 -76.5 -0.6 -73.3 -0.6 -69.4C-0.6 -65.4 -3.8 -62.3 -7.7 -62.3C-11.7 -62.3 -14.8 -65.4 -14.8 -69.4Z"/>
    <path class="foliage" fill="#55844a" d="M0.6 -69.4C0.6 -73.3 3.8 -76.5 7.7 -76.5C11.7 -76.5 14.8 -73.3 14.8 -69.4C14.8 -65.4 11.7 -62.3 7.7 -62.3C3.8 -62.3 0.6 -65.4 0.6 -69.4Z"/>
    <path class="foliage" fill="#55844a" d="M-10 -78.6C-10 -84.1 -5.5 -88.5 0 -88.5C5.5 -88.5 10 -84.1 10 -78.6C10 -73.1 5.5 -68.6 0 -68.6C-5.5 -68.6 -10 -73.1 -10 -78.6Z"/>
    <path class="foliage" fill="#55844a" d="M-14.8 -77.6C-14.8 -81.2 -11.8 -84.2 -8.2 -84.2C-4.5 -84.2 -1.6 -81.2 -1.6 -77.6C-1.6 -73.9 -4.5 -71 -8.2 -71C-11.8 -71 -14.8 -73.9 -14.8 -77.6Z"/>
    <path class="foliage" fill="#55844a" d="M1.6 -77.6C1.6 -81.2 4.5 -84.2 8.2 -84.2C11.8 -84.2 14.8 -81.2 14.8 -77.6C14.8 -73.9 11.8 -71 8.2 -71C4.5 -71 1.6 -73.9 1.6 -77.6Z"/>
    <path class="foliage" fill="#55844a" d="M-9.2 -86.7C-9.2 -91.8 -5.1 -95.9 0 -95.9C5.1 -95.9 9.2 -91.8 9.2 -86.7C9.2 -81.6 5.1 -77.5 0 -77.5C-5.1 -77.5 -9.2 -81.6 -9.2 -86.7Z"/>
    <path class="foliage" fill="#55844a" d="M-12.7 -85.8C-12.7 -89.1 -10 -91.9 -6.6 -91.9C-3.3 -91.9 -0.6 -89.1 -0.6 -85.8C-0.6 -82.4 -3.3 -79.7 -6.6 -79.7C-10 -79.7 -12.7 -82.4 -12.7 -85.8Z"/>
    <path class="foliage" fill="#55844a" d="M0.6 -85.8C0.6 -89.1 3.3 -91.9 6.6 -91.9C10 -91.9 12.7 -89.1 12.7 -85.8C12.7 -82.4 10 -79.7 6.6 -79.7C3.3 -79.7 0.6 -82.4 0.6 -85.8Z"/>
    <path class="foliage" fill="#55844a" d="M-6.4 -94.9C-6.4 -98.4 -3.6 -101.3 0 -101.3C3.6 -101.3 6.4 -98.4 6.4 -94.9C6.4 -91.3 3.6 -88.4 0 -88.4C-3.6 -88.4 -6.4 -91.3 -6.4 -94.9Z"/>
    <path class="foliage" fill="#55844a" d="M-3 -103C-3 -104.7 -1.7 -106 0 -106C1.7 -106 3 -104.7 3 -103C3 -101.3 1.7 -100 0 -100C-1.7 -100 -3 -101.3 -3 -103Z"/>
    <path fill="rgba(255,255,255,0.09)" d="M-13 -81.6C-13 -83.8 -11.2 -85.6 -9 -85.6C-6.8 -85.6 -5 -83.8 -5 -81.6C-5 -79.4 -6.8 -77.6 -9 -77.6C-11.2 -77.6 -13 -79.4 -13 -81.6Z"/>
  </g>
  <g class="variant">
    <path class="trunk" fill="#6b5340" d="M-17 0Q-15 -4 -14 -9L-5 -52L5 -52L14 -9Q15 -4 17 0Z"/>
    <path fill="rgba(0,0,0,0.13)" d="M0.3 -9L1.8 -52L5 -52L14 -9Q15 -4 17 0L4.2 0Z"/>
    <path fill="rgba(255,255,255,0.07)" d="M-17 0Q-15 -4 -14 -9L-5 -52L-2.2 -52L-6.3 -9L-7 0Z"/>
    <path class="foliage2" fill="#6f9c54" d="M-3.6 -42.9C-3.6 -47.9 0.4 -52 5.5 -52C10.5 -52 14.6 -47.9 14.6 -42.9C14.6 -37.9 10.5 -33.8 5.5 -33.8C0.4 -33.8 -3.6 -37.9 -3.6 -42.9Z"/>
    <path class="foliage2" fill="#6f9c54" d="M-5 -59.8C-5 -66.7 0.6 -72.3 7.5 -72.3C14.4 -72.3 20 -66.7 20 -59.8C20 -52.9 14.4 -47.3 7.5 -47.3C0.6 -47.3 -5 -52.9 -5 -59.8Z"/>
    <path class="foliage2" fill="#6f9c54" d="M-4.3 -76.2C-4.3 -82.2 0.5 -87 6.5 -87C12.5 -87 17.3 -82.2 17.3 -76.2C17.3 -70.3 12.5 -65.4 6.5 -65.4C0.5 -65.4 -4.3 -70.3 -4.3 -76.2Z"/>
    <path class="foliage2" fill="#6f9c54" d="M-2.8 -92.4C-2.8 -96.3 0.3 -99.4 4.2 -99.4C8 -99.4 11.1 -96.3 11.1 -92.4C11.1 -88.6 8 -85.4 4.2 -85.4C0.3 -85.4 -2.8 -88.6 -2.8 -92.4Z"/>
    <path class="foliage" fill="#55844a" d="M-9.1 -42C-9.1 -47 -5 -51.1 0 -51.1C5 -51.1 9.1 -47 9.1 -42C9.1 -37 5 -32.9 0 -32.9C-5 -32.9 -9.1 -37 -9.1 -42Z"/>
    <path class="foliage" fill="#55844a" d="M-11.9 -50.3C-11.9 -56.9 -6.6 -62.2 0 -62.2C6.6 -62.2 11.9 -56.9 11.9 -50.3C11.9 -43.7 6.6 -38.4 0 -38.4C-6.6 -38.4 -11.9 -43.7 -11.9 -50.3Z"/>
    <path class="foliage" fill="#55844a" d="M-16.4 -49.1C-16.4 -53.4 -12.9 -56.9 -8.6 -56.9C-4.2 -56.9 -0.7 -53.4 -0.7 -49.1C-0.7 -44.8 -4.2 -41.3 -8.6 -41.3C-12.9 -41.3 -16.4 -44.8 -16.4 -49.1Z"/>
    <path class="foliage" fill="#55844a" d="M0.7 -49.1C0.7 -53.4 4.2 -56.9 8.6 -56.9C12.9 -56.9 16.4 -53.4 16.4 -49.1C16.4 -44.8 12.9 -41.3 8.6 -41.3C4.2 -41.3 0.7 -44.8 0.7 -49.1Z"/>
    <path class="foliage" fill="#55844a" d="M-12.5 -58.6C-12.5 -65.5 -6.9 -71.1 0 -71.1C6.9 -71.1 12.5 -65.5 12.5 -58.6C12.5 -51.7 6.9 -46.1 0 -46.1C-6.9 -46.1 -12.5 -51.7 -12.5 -58.6Z"/>
    <path class="foliage" fill="#55844a" d="M-18.5 -57.3C-18.5 -61.9 -14.8 -65.6 -10.2 -65.6C-5.7 -65.6 -2 -61.9 -2 -57.3C-2 -52.8 -5.7 -49.1 -10.2 -49.1C-14.8 -49.1 -18.5 -52.8 -18.5 -57.3Z"/>
    <path class="foliage" fill="#55844a" d="M2 -57.3C2 -61.9 5.7 -65.6 10.2 -65.6C14.8 -65.6 18.5 -61.9 18.5 -57.3C18.5 -52.8 14.8 -49.1 10.2 -49.1C5.7 -49.1 2 -52.8 2 -57.3Z"/>
    <path class="foliage" fill="#55844a" d="M-11.6 -66.9C-11.6 -73.3 -6.4 -78.5 0 -78.5C6.4 -78.5 11.6 -73.3 11.6 -66.9C11.6 -60.4 6.4 -55.2 0 -55.2C-6.4 -55.2 -11.6 -60.4 -11.6 -66.9Z"/>
    <path class="foliage" fill="#55844a" d="M-16.1 -65.7C-16.1 -69.9 -12.6 -73.4 -8.4 -73.4C-4.1 -73.4 -0.7 -69.9 -0.7 -65.7C-0.7 -61.4 -4.1 -58 -8.4 -58C-12.6 -58 -16.1 -61.4 -16.1 -65.7Z"/>
    <path class="foliage" fill="#55844a" d="M0.7 -65.7C0.7 -69.9 4.1 -73.4 8.4 -73.4C12.6 -73.4 16.1 -69.9 16.1 -65.7C16.1 -61.4 12.6 -58 8.4 -58C4.1 -58 0.7 -61.4 0.7 -65.7Z"/>
    <path class="foliage" fill="#55844a" d="M-10.8 -75.1C-10.8 -81.1 -6 -85.9 0 -85.9C6 -85.9 10.8 -81.1 10.8 -75.1C10.8 -69.2 6 -64.3 0 -64.3C-6 -64.3 -10.8 -69.2 -10.8 -75.1Z"/>
    <path class="foliage" fill="#55844a" d="M-16 -74.1C-16 -78 -12.8 -81.2 -8.9 -81.2C-4.9 -81.2 -1.7 -78 -1.7 -74.1C-1.7 -70.1 -4.9 -66.9 -8.9 -66.9C-12.8 -66.9 -16 -70.1 -16 -74.1Z"/>
    <path class="foliage" fill="#55844a" d="M1.7 -74.1C1.7 -78 4.9 -81.2 8.9 -81.2C12.8 -81.2 16 -78 16 -74.1C16 -70.1 12.8 -66.9 8.9 -66.9C4.9 -66.9 1.7 -70.1 1.7 -74.1Z"/>
    <path class="foliage" fill="#55844a" d="M-10 -83.4C-10 -88.9 -5.5 -93.4 0 -93.4C5.5 -93.4 10 -88.9 10 -83.4C10 -77.9 5.5 -73.5 0 -73.5C-5.5 -73.5 -10 -77.9 -10 -83.4Z"/>
    <path class="foliage" fill="#55844a" d="M-13.7 -82.4C-13.7 -86.1 -10.8 -89 -7.2 -89C-3.5 -89 -0.6 -86.1 -0.6 -82.4C-0.6 -78.8 -3.5 -75.9 -7.2 -75.9C-10.8 -75.9 -13.7 -78.8 -13.7 -82.4Z"/>
    <path class="foliage" fill="#55844a" d="M0.6 -82.4C0.6 -86.1 3.5 -89 7.2 -89C10.8 -89 13.7 -86.1 13.7 -82.4C13.7 -78.8 10.8 -75.9 7.2 -75.9C3.5 -75.9 0.6 -78.8 0.6 -82.4Z"/>
    <path class="foliage" fill="#55844a" d="M-7 -91.7C-7 -95.6 -3.8 -98.7 0 -98.7C3.8 -98.7 7 -95.6 7 -91.7C7 -87.9 3.8 -84.7 0 -84.7C-3.8 -84.7 -7 -87.9 -7 -91.7Z"/>
    <path class="foliage" fill="#55844a" d="M-3.2 -100C-3.2 -101.8 -1.8 -103.2 0 -103.2C1.8 -103.2 3.3 -101.8 3.3 -100C3.3 -98.2 1.8 -96.7 0 -96.7C-1.8 -96.7 -3.2 -98.2 -3.2 -100Z"/>
    <path fill="rgba(255,255,255,0.09)" d="M-14 -78.4C-14 -80.8 -12.1 -82.7 -9.7 -82.7C-7.3 -82.7 -5.4 -80.8 -5.4 -78.4C-5.4 -76 -7.3 -74.1 -9.7 -74.1C-12.1 -74.1 -14 -76 -14 -78.4Z"/>
  </g>
  <g class="variant">
    <path class="trunk" fill="#6b5340" d="M-15 0Q-13 -4 -12 -9L-4 -60L4 -60L12 -9Q13 -4 15 0Z"/>
    <path fill="rgba(0,0,0,0.13)" d="M0.2 -9L1.4 -60L4 -60L12 -9Q13 -4 15 0L3.6 0Z"/>
    <path fill="rgba(255,255,255,0.07)" d="M-15 0Q-13 -4 -12 -9L-4 -60L-1.8 -60L-5.4 -9L-6 0Z"/>
    <path class="foliage2" fill="#6f9c54" d="M-3.1 -50.8C-3.1 -55 0.4 -58.5 4.6 -58.5C8.9 -58.5 12.3 -55 12.3 -50.8C12.3 -46.5 8.9 -43.1 4.6 -43.1C0.4 -43.1 -3.1 -46.5 -3.1 -50.8Z"/>
    <path class="foliage2" fill="#6f9c54" d="M-4.2 -66.5C-4.2 -72.3 0.5 -77.1 6.3 -77.1C12.2 -77.1 16.9 -72.3 16.9 -66.5C16.9 -60.6 12.2 -55.9 6.3 -55.9C0.5 -55.9 -4.2 -60.6 -4.2 -66.5Z"/>
    <path class="foliage2" fill="#6f9c54" d="M-3.7 -81.8C-3.7 -86.8 0.4 -90.9 5.5 -90.9C10.5 -90.9 14.6 -86.8 14.6 -81.8C14.6 -76.7 10.5 -72.6 5.5 -72.6C0.4 -72.6 -3.7 -76.7 -3.7 -81.8Z"/>
    <path class="foliage2" fill="#6f9c54" d="M-2.4 -96.9C-2.4 -100.1 0.3 -102.8 3.5 -102.8C6.8 -102.8 9.4 -100.1 9.4 -96.9C9.4 -93.6 6.8 -91 3.5 -91C0.3 -91 -2.4 -93.6 -2.4 -96.9Z"/>
    <path class="foliage" fill="#55844a" d="M-7.7 -50C-7.7 -54.3 -4.3 -57.7 0 -57.7C4.3 -57.7 7.7 -54.3 7.7 -50C7.7 -45.7 4.3 -42.3 0 -42.3C-4.3 -42.3 -7.7 -45.7 -7.7 -50Z"/>
    <path class="foliage" fill="#55844a" d="M-10.1 -57.7C-10.1 -63.3 -5.6 -67.8 0 -67.8C5.6 -67.8 10.1 -63.3 10.1 -57.7C10.1 -52.2 5.6 -47.7 0 -47.7C-5.6 -47.7 -10.1 -52.2 -10.1 -57.7Z"/>
    <path class="foliage" fill="#55844a" d="M-13.9 -56.7C-13.9 -60.4 -10.9 -63.3 -7.2 -63.3C-3.6 -63.3 -0.6 -60.4 -0.6 -56.7C-0.6 -53 -3.6 -50.1 -7.2 -50.1C-10.9 -50.1 -13.9 -53 -13.9 -56.7Z"/>
    <path class="foliage" fill="#55844a" d="M0.6 -56.7C0.6 -60.4 3.6 -63.3 7.2 -63.3C10.9 -63.3 13.9 -60.4 13.9 -56.7C13.9 -53 10.9 -50.1 7.2 -50.1C3.6 -50.1 0.6 -53 0.6 -56.7Z"/>
    <path class="foliage" fill="#55844a" d="M-10.6 -65.4C-10.6 -71.3 -5.8 -76 0 -76C5.8 -76 10.6 -71.3 10.6 -65.4C10.6 -59.6 5.8 -54.9 0 -54.9C-5.8 -54.9 -10.6 -59.6 -10.6 -65.4Z"/>
    <path class="foliage" fill="#55844a" d="M-15.6 -64.4C-15.6 -68.2 -12.5 -71.3 -8.7 -71.3C-4.8 -71.3 -1.7 -68.2 -1.7 -64.4C-1.7 -60.5 -4.8 -57.4 -8.7 -57.4C-12.5 -57.4 -15.6 -60.5 -15.6 -64.4Z"/>
    <path class="foliage" fill="#55844a" d="M1.7 -64.4C1.7 -68.2 4.8 -71.3 8.7 -71.3C12.5 -71.3 15.6 -68.2 15.6 -64.4C15.6 -60.5 12.5 -57.4 8.7 -57.4C4.8 -57.4 1.7 -60.5 1.7 -64.4Z"/>
    <path class="foliage" fill="#55844a" d="M-9.9 -73.1C-9.9 -78.6 -5.4 -83 0 -83C5.4 -83 9.9 -78.6 9.9 -73.1C9.9 -67.7 5.4 -63.3 0 -63.3C-5.4 -63.3 -9.9 -67.7 -9.9 -73.1Z"/>
    <path class="foliage" fill="#55844a" d="M-13.6 -72.2C-13.6 -75.8 -10.7 -78.7 -7.1 -78.7C-3.5 -78.7 -0.6 -75.8 -0.6 -72.2C-0.6 -68.6 -3.5 -65.7 -7.1 -65.7C-10.7 -65.7 -13.6 -68.6 -13.6 -72.2Z"/>
    <path class="foliage" fill="#55844a" d="M0.6 -72.2C0.6 -75.8 3.5 -78.7 7.1 -78.7C10.7 -78.7 13.6 -75.8 13.6 -72.2C13.6 -68.6 10.7 -65.7 7.1 -65.7C3.5 -65.7 0.6 -68.6 0.6 -72.2Z"/>
    <path class="foliage" fill="#55844a" d="M-9.1 -80.9C-9.1 -85.9 -5 -90 0 -90C5 -90 9.1 -85.9 9.1 -80.9C9.1 -75.8 5 -71.7 0 -71.7C-5 -71.7 -9.1 -75.8 -9.1 -80.9Z"/>
    <path class="foliage" fill="#55844a" d="M-13.5 -79.9C-13.5 -83.3 -10.8 -86 -7.5 -86C-4.2 -86 -1.5 -83.3 -1.5 -79.9C-1.5 -76.6 -4.2 -73.9 -7.5 -73.9C-10.8 -73.9 -13.5 -76.6 -13.5 -79.9Z"/>
    <path class="foliage" fill="#55844a" d="M1.5 -79.9C1.5 -83.3 4.2 -86 7.5 -86C10.8 -86 13.5 -83.3 13.5 -79.9C13.5 -76.6 10.8 -73.9 7.5 -73.9C4.2 -73.9 1.5 -76.6 1.5 -79.9Z"/>
    <path class="foliage" fill="#55844a" d="M-8.4 -88.6C-8.4 -93.2 -4.7 -97 0 -97C4.7 -97 8.4 -93.2 8.4 -88.6C8.4 -83.9 4.7 -80.1 0 -80.1C-4.7 -80.1 -8.4 -83.9 -8.4 -88.6Z"/>
    <path class="foliage" fill="#55844a" d="M-11.6 -87.7C-11.6 -90.8 -9.1 -93.3 -6.1 -93.3C-3 -93.3 -0.5 -90.8 -0.5 -87.7C-0.5 -84.7 -3 -82.2 -6.1 -82.2C-9.1 -82.2 -11.6 -84.7 -11.6 -87.7Z"/>
    <path class="foliage" fill="#55844a" d="M0.5 -87.7C0.5 -90.8 3 -93.3 6.1 -93.3C9.1 -93.3 11.6 -90.8 11.6 -87.7C11.6 -84.7 9.1 -82.2 6.1 -82.2C3 -82.2 0.5 -84.7 0.5 -87.7Z"/>
    <path class="foliage" fill="#55844a" d="M-5.9 -96.3C-5.9 -99.5 -3.3 -102.2 0 -102.2C3.3 -102.2 5.9 -99.5 5.9 -96.3C5.9 -93 3.3 -90.4 0 -90.4C-3.3 -90.4 -5.9 -93 -5.9 -96.3Z"/>
    <path class="foliage" fill="#55844a" d="M-2.7 -104C-2.7 -105.5 -1.5 -106.7 0 -106.7C1.5 -106.7 2.8 -105.5 2.8 -104C2.8 -102.5 1.5 -101.2 0 -101.2C-1.5 -101.2 -2.7 -102.5 -2.7 -104Z"/>
    <path fill="rgba(255,255,255,0.09)" d="M-11.9 -83.6C-11.9 -85.6 -10.2 -87.3 -8.2 -87.3C-6.2 -87.3 -4.6 -85.6 -4.6 -83.6C-4.6 -81.6 -6.2 -79.9 -8.2 -79.9C-10.2 -79.9 -11.9 -81.6 -11.9 -83.6Z"/>
  </g>
</svg>
