<svg data-meters="5 10" xmlns="http://www.w3.org/2000/svg" viewBox="-44 -86 88 90">
  <g class="variant">
    <path class="trunk" fill="#5a4636" d="M-3.4 0Q-4.4 -22 -11.6 -44L-8.4 -44Q-1.6 -22 3.4 0Z"/>
    <path class="trunk" fill="none" stroke="#5a4636" stroke-width="2.6" stroke-linecap="round" d="M-3 -26Q-15.5 -36 -22 -46"/>
    <path class="trunk" fill="none" stroke="#5a4636" stroke-width="2.4" stroke-linecap="round" d="M-7 -36Q3.5 -44 10 -52"/>
    <path fill="rgba(0,0,0,0.16)" d="M-3 -2L-10.3 -44L-8.4 -44Q-1.6 -22 3.4 0L0.7 0Z"/>
    <path class="pink2" fill="#e094b2" d="M-29.2 -54.8C-29.2 -60.8 -24.4 -65.6 -18.4 -65.6C-12.4 -65.6 -7.6 -60.8 -7.6 -54.8C-7.6 -48.9 -12.4 -44.1 -18.4 -44.1C-24.4 -44.1 -29.2 -48.9 -29.2 -54.8Z"/>
    <path class="pink2" fill="#e094b2" d="M-20.7 -56.6C-20.7 -60.6 -17.4 -63.8 -13.4 -63.8C-9.5 -63.8 -6.3 -60.6 -6.3 -56.6C-6.3 -52.7 -9.5 -49.4 -13.4 -49.4C-17.4 -49.4 -20.7 -52.7 -20.7 -56.6Z"/>
    <path class="pink2" fill="#e094b2" d="M-12 -62.5C-12 -69.1 -6.6 -74.5 0 -74.5C6.6 -74.5 12 -69.1 12 -62.5C12 -55.9 6.6 -50.5 0 -50.5C-6.6 -50.5 -12 -55.9 -12 -62.5Z"/>
    <path class="pink2" fill="#e094b2" d="M-2.5 -64.5C-2.5 -68.9 1.1 -72.5 5.5 -72.5C9.9 -72.5 13.5 -68.9 13.5 -64.5C13.5 -60.1 9.9 -56.5 5.5 -56.5C1.1 -56.5 -2.5 -60.1 -2.5 -64.5Z"/>
    <path class="pink2" fill="#e094b2" d="M6.8 -56.8C6.8 -62.8 11.6 -67.6 17.6 -67.6C23.6 -67.6 28.4 -62.8 28.4 -56.8C28.4 -50.9 23.6 -46.1 17.6 -46.1C11.6 -46.1 6.8 -50.9 6.8 -56.8Z"/>
    <path class="pink2" fill="#e094b2" d="M15.3 -58.6C15.3 -62.6 18.6 -65.8 22.5 -65.8C26.5 -65.8 29.7 -62.6 29.7 -58.6C29.7 -54.7 26.5 -51.4 22.5 -51.4C18.6 -51.4 15.3 -54.7 15.3 -58.6Z"/>
    <path class="pink" fill="#f0b6c9" d="M-31.4 -60.2C-31.4 -65.5 -27.2 -69.7 -22 -69.7C-16.8 -69.7 -12.5 -65.5 -12.5 -60.2C-12.5 -55 -16.8 -50.8 -22 -50.8C-27.2 -50.8 -31.4 -55 -31.4 -60.2Z"/>
    <path class="pink" fill="#f0b6c9" d="M-37.2 -57.1C-37.2 -60.8 -34.2 -63.8 -30.5 -63.8C-26.9 -63.8 -23.9 -60.8 -23.9 -57.1C-23.9 -53.4 -26.9 -50.4 -30.5 -50.4C-34.2 -50.4 -37.2 -53.4 -37.2 -57.1Z"/>
    <path class="pink" fill="#f0b6c9" d="M-20.1 -57.1C-20.1 -60.8 -17.1 -63.8 -13.4 -63.8C-9.8 -63.8 -6.8 -60.8 -6.8 -57.1C-6.8 -53.4 -9.8 -50.4 -13.4 -50.4C-17.1 -50.4 -20.1 -53.4 -20.1 -57.1Z"/>
    <path class="pink" fill="#f0b6c9" d="M-31 -52.6C-31 -55.6 -28.6 -58 -25.6 -58C-22.6 -58 -20.2 -55.6 -20.2 -52.6C-20.2 -49.6 -22.6 -47.2 -25.6 -47.2C-28.6 -47.2 -31 -49.6 -31 -52.6Z"/>
    <path class="pink" fill="#f0b6c9" d="M-23.3 -53C-23.3 -56 -20.9 -58.4 -17.9 -58.4C-15 -58.4 -12.5 -56 -12.5 -53C-12.5 -50.1 -15 -47.6 -17.9 -47.6C-20.9 -47.6 -23.3 -50.1 -23.3 -53Z"/>
    <path class="pink" fill="#f0b6c9" d="M-14.5 -68.5C-14.5 -74.3 -9.8 -79 -4 -79C1.8 -79 6.5 -74.3 6.5 -68.5C6.5 -62.7 1.8 -58 -4 -58C-9.8 -58 -14.5 -62.7 -14.5 -68.5Z"/>
    <path class="pink" fill="#f0b6c9" d="M-20.9 -65C-20.9 -69.1 -17.6 -72.4 -13.5 -72.4C-9.4 -72.4 -6.1 -69.1 -6.1 -65C-6.1 -60.9 -9.4 -57.6 -13.5 -57.6C-17.6 -57.6 -20.9 -60.9 -20.9 -65Z"/>
    <path class="pink" fill="#f0b6c9" d="M-1.9 -65C-1.9 -69.1 1.4 -72.4 5.5 -72.4C9.6 -72.4 12.9 -69.1 12.9 -65C12.9 -60.9 9.6 -57.6 5.5 -57.6C1.4 -57.6 -1.9 -60.9 -1.9 -65Z"/>
    <path class="pink" fill="#f0b6c9" d="M-14 -60C-14 -63.3 -11.3 -66 -8 -66C-4.7 -66 -2 -63.3 -2 -60C-2 -56.7 -4.7 -54 -8 -54C-11.3 -54 -14 -56.7 -14 -60Z"/>
    <path class="pink" fill="#f0b6c9" d="M-5.5 -60.5C-5.5 -63.8 -2.8 -66.5 0.5 -66.5C3.8 -66.5 6.5 -63.8 6.5 -60.5C6.5 -57.2 3.8 -54.5 0.5 -54.5C-2.8 -54.5 -5.5 -57.2 -5.5 -60.5Z"/>
    <path class="pink" fill="#f0b6c9" d="M4.5 -62.2C4.5 -67.5 8.8 -71.7 14 -71.7C19.2 -71.7 23.5 -67.5 23.5 -62.2C23.5 -57 19.2 -52.8 14 -52.8C8.8 -52.8 4.5 -57 4.5 -62.2Z"/>
    <path class="pink" fill="#f0b6c9" d="M-1.2 -59.1C-1.2 -62.8 1.8 -65.8 5.5 -65.8C9.1 -65.8 12.1 -62.8 12.1 -59.1C12.1 -55.4 9.1 -52.4 5.5 -52.4C1.8 -52.4 -1.2 -55.4 -1.2 -59.1Z"/>
    <path class="pink" fill="#f0b6c9" d="M15.9 -59.1C15.9 -62.8 18.9 -65.8 22.5 -65.8C26.2 -65.8 29.2 -62.8 29.2 -59.1C29.2 -55.4 26.2 -52.4 22.5 -52.4C18.9 -52.4 15.9 -55.4 15.9 -59.1Z"/>
    <path class="pink" fill="#f0b6c9" d="M5 -54.6C5 -57.6 7.4 -60 10.4 -60C13.4 -60 15.8 -57.6 15.8 -54.6C15.8 -51.6 13.4 -49.2 10.4 -49.2C7.4 -49.2 5 -51.6 5 -54.6Z"/>
    <path class="pink" fill="#f0b6c9" d="M12.7 -55C12.7 -58 15.1 -60.4 18.1 -60.4C21 -60.4 23.5 -58 23.5 -55C23.5 -52.1 21 -49.6 18.1 -49.6C15.1 -49.6 12.7 -52.1 12.7 -55Z"/>
    <path fill="rgba(255,255,255,0.12)" d="M-30.9 -62.9C-30.9 -65.1 -29.1 -66.9 -26.9 -66.9C-24.8 -66.9 -23 -65.1 -23 -62.9C-23 -60.8 -24.8 -59 -26.9 -59C-29.1 -59 -30.9 -60.8 -30.9 -62.9Z"/>
    <path fill="rgba(255,255,255,0.12)" d="M-13.9 -71.5C-13.9 -73.9 -11.9 -75.9 -9.5 -75.9C-7.1 -75.9 -5.1 -73.9 -5.1 -71.5C-5.1 -69.1 -7.1 -67.1 -9.5 -67.1C-11.9 -67.1 -13.9 -69.1 -13.9 -71.5Z"/>
    <path fill="rgba(255,255,255,0.12)" d="M5.1 -64.9C5.1 -67.1 6.9 -68.9 9.1 -68.9C11.2 -68.9 13 -67.1 13 -64.9C13 -62.8 11.2 -61 9.1 -61C6.9 -61 5.1 -62.8 5.1 -64.9Z"/>
  </g>
  <g class="variant">
    <path class="trunk" fill="#5a4636" d="M-3.4 0Q-0.8 -24 0.4 -48L3.6 -48Q2 -24 3.4 0Z"/>
    <path class="trunk" fill="none" stroke="#5a4636" stroke-width="2.6" stroke-linecap="round" d="M-1 -30Q-12.5 -40 -18 -50"/>
    <path class="trunk" fill="none" stroke="#5a4636" stroke-width="2.6" stroke-linecap="round" d="M1 -30Q13.5 -40 20 -50"/>
    <path fill="rgba(0,0,0,0.16)" d="M0.6 -2L1.7 -48L3.6 -48Q2 -24 3.4 0L0.7 0Z"/>
    <path class="pink2" fill="#e094b2" d="M-25.8 -58.8C-25.8 -65.1 -20.7 -70.2 -14.4 -70.2C-8.1 -70.2 -3 -65.1 -3 -58.8C-3 -52.6 -8.1 -47.4 -14.4 -47.4C-20.7 -47.4 -25.8 -52.6 -25.8 -58.8Z"/>
    <path class="pink2" fill="#e094b2" d="M-17 -60.6C-17 -64.8 -13.6 -68.2 -9.5 -68.2C-5.3 -68.2 -1.9 -64.8 -1.9 -60.6C-1.9 -56.5 -5.3 -53 -9.5 -53C-13.6 -53 -17 -56.5 -17 -60.6Z"/>
    <path class="pink2" fill="#e094b2" d="M-6.6 -66.5C-6.6 -73.5 -1 -79.1 6 -79.1C13 -79.1 18.6 -73.5 18.6 -66.5C18.6 -59.5 13 -53.9 6 -53.9C-1 -53.9 -6.6 -59.5 -6.6 -66.5Z"/>
    <path class="pink2" fill="#e094b2" d="M3.1 -68.5C3.1 -73.1 6.9 -76.9 11.5 -76.9C16.1 -76.9 19.9 -73.1 19.9 -68.5C19.9 -63.9 16.1 -60.1 11.5 -60.1C6.9 -60.1 3.1 -63.9 3.1 -68.5Z"/>
    <path class="pink2" fill="#e094b2" d="M12.2 -58.8C12.2 -65.1 17.3 -70.2 23.6 -70.2C29.9 -70.2 35 -65.1 35 -58.8C35 -52.6 29.9 -47.4 23.6 -47.4C17.3 -47.4 12.2 -52.6 12.2 -58.8Z"/>
    <path class="pink2" fill="#e094b2" d="M20.9 -60.6C20.9 -64.8 24.4 -68.2 28.6 -68.2C32.7 -68.2 36.2 -64.8 36.2 -60.6C36.2 -56.5 32.7 -53 28.6 -53C24.4 -53 20.9 -56.5 20.9 -60.6Z"/>
    <path class="pink" fill="#f0b6c9" d="M-28 -64.2C-28 -69.8 -23.5 -74.2 -18 -74.2C-12.5 -74.2 -8 -69.8 -8 -64.2C-8 -58.7 -12.5 -54.3 -18 -54.3C-23.5 -54.3 -28 -58.7 -28 -64.2Z"/>
    <path class="pink" fill="#f0b6c9" d="M-33.6 -61.1C-33.6 -65 -30.4 -68.1 -26.5 -68.1C-22.7 -68.1 -19.5 -65 -19.5 -61.1C-19.5 -57.2 -22.7 -54.1 -26.5 -54.1C-30.4 -54.1 -33.6 -57.2 -33.6 -61.1Z"/>
    <path class="pink" fill="#f0b6c9" d="M-16.5 -61.1C-16.5 -65 -13.3 -68.1 -9.5 -68.1C-5.6 -68.1 -2.4 -65 -2.4 -61.1C-2.4 -57.2 -5.6 -54.1 -9.5 -54.1C-13.3 -54.1 -16.5 -57.2 -16.5 -61.1Z"/>
    <path class="pink" fill="#f0b6c9" d="M-27.3 -56.6C-27.3 -59.7 -24.7 -62.3 -21.6 -62.3C-18.5 -62.3 -15.9 -59.7 -15.9 -56.6C-15.9 -53.5 -18.5 -50.9 -21.6 -50.9C-24.7 -50.9 -27.3 -53.5 -27.3 -56.6Z"/>
    <path class="pink" fill="#f0b6c9" d="M-19.6 -57C-19.6 -60.2 -17.1 -62.7 -13.9 -62.7C-10.8 -62.7 -8.2 -60.2 -8.2 -57C-8.2 -53.9 -10.8 -51.3 -13.9 -51.3C-17.1 -51.3 -19.6 -53.9 -19.6 -57Z"/>
    <path class="pink" fill="#f0b6c9" d="M-9 -72.5C-9 -78.6 -4.1 -83.5 2 -83.5C8.1 -83.5 13 -78.6 13 -72.5C13 -66.4 8.1 -61.5 2 -61.5C-4.1 -61.5 -9 -66.4 -9 -72.5Z"/>
    <path class="pink" fill="#f0b6c9" d="M-15.3 -69C-15.3 -73.3 -11.8 -76.8 -7.5 -76.8C-3.2 -76.8 0.3 -73.3 0.3 -69C0.3 -64.7 -3.2 -61.2 -7.5 -61.2C-11.8 -61.2 -15.3 -64.7 -15.3 -69Z"/>
    <path class="pink" fill="#f0b6c9" d="M3.7 -69C3.7 -73.3 7.2 -76.8 11.5 -76.8C15.8 -76.8 19.3 -73.3 19.3 -69C19.3 -64.7 15.8 -61.2 11.5 -61.2C7.2 -61.2 3.7 -64.7 3.7 -69Z"/>
    <path class="pink" fill="#f0b6c9" d="M-8.3 -64C-8.3 -67.5 -5.5 -70.3 -2 -70.3C1.5 -70.3 4.3 -67.5 4.3 -64C4.3 -60.5 1.5 -57.7 -2 -57.7C-5.5 -57.7 -8.3 -60.5 -8.3 -64Z"/>
    <path class="pink" fill="#f0b6c9" d="M0.2 -64.5C0.2 -68 3 -70.8 6.5 -70.8C10 -70.8 12.8 -68 12.8 -64.5C12.8 -61 10 -58.2 6.5 -58.2C3 -58.2 0.2 -61 0.2 -64.5Z"/>
    <path class="pink" fill="#f0b6c9" d="M10 -64.2C10 -69.8 14.5 -74.2 20 -74.2C25.5 -74.2 30 -69.8 30 -64.2C30 -58.7 25.5 -54.3 20 -54.3C14.5 -54.3 10 -58.7 10 -64.2Z"/>
    <path class="pink" fill="#f0b6c9" d="M4.4 -61.1C4.4 -65 7.6 -68.1 11.5 -68.1C15.3 -68.1 18.5 -65 18.5 -61.1C18.5 -57.2 15.3 -54.1 11.5 -54.1C7.6 -54.1 4.4 -57.2 4.4 -61.1Z"/>
    <path class="pink" fill="#f0b6c9" d="M21.5 -61.1C21.5 -65 24.7 -68.1 28.6 -68.1C32.4 -68.1 35.6 -65 35.6 -61.1C35.6 -57.2 32.4 -54.1 28.6 -54.1C24.7 -54.1 21.5 -57.2 21.5 -61.1Z"/>
    <path class="pink" fill="#f0b6c9" d="M10.7 -56.6C10.7 -59.7 13.3 -62.3 16.4 -62.3C19.5 -62.3 22.1 -59.7 22.1 -56.6C22.1 -53.5 19.5 -50.9 16.4 -50.9C13.3 -50.9 10.7 -53.5 10.7 -56.6Z"/>
    <path class="pink" fill="#f0b6c9" d="M18.4 -57C18.4 -60.2 20.9 -62.7 24.1 -62.7C27.2 -62.7 29.8 -60.2 29.8 -57C29.8 -53.9 27.2 -51.3 24.1 -51.3C20.9 -51.3 18.4 -53.9 18.4 -57Z"/>
    <path fill="rgba(255,255,255,0.12)" d="M-27.1 -66.9C-27.1 -69.3 -25.3 -71.1 -22.9 -71.1C-20.6 -71.1 -18.8 -69.3 -18.8 -66.9C-18.8 -64.6 -20.6 -62.8 -22.9 -62.8C-25.3 -62.8 -27.1 -64.6 -27.1 -66.9Z"/>
    <path fill="rgba(255,255,255,0.12)" d="M-8.1 -75.5C-8.1 -78.1 -6.1 -80.1 -3.5 -80.1C-0.9 -80.1 1.1 -78.1 1.1 -75.5C1.1 -72.9 -0.9 -70.9 -3.5 -70.9C-6.1 -70.9 -8.1 -72.9 -8.1 -75.5Z"/>
    <path fill="rgba(255,255,255,0.12)" d="M10.9 -66.9C10.9 -69.3 12.7 -71.1 15.1 -71.1C17.4 -71.1 19.2 -69.3 19.2 -66.9C19.2 -64.6 17.4 -62.8 15.1 -62.8C12.7 -62.8 10.9 -64.6 10.9 -66.9Z"/>
  </g>
  <g class="variant">
    <path class="trunk" fill="#5a4636" d="M-3.4 0Q1.3 -21 7.4 -42L10.6 -42Q4.1 -21 3.4 0Z"/>
    <path class="trunk" fill="none" stroke="#5a4636" stroke-width="2.6" stroke-linecap="round" d="M3 -24Q15.5 -34 22 -44"/>
    <path class="trunk" fill="none" stroke="#5a4636" stroke-width="2.4" stroke-linecap="round" d="M6 -34Q-4 -42 -10 -50"/>
    <path fill="rgba(0,0,0,0.16)" d="M2.7 -2L8.7 -42L10.6 -42Q4.1 -21 3.4 0L0.7 0Z"/>
    <path class="pink2" fill="#e094b2" d="M14.8 -52.8C14.8 -58.8 19.6 -63.6 25.6 -63.6C31.6 -63.6 36.4 -58.8 36.4 -52.8C36.4 -46.9 31.6 -42.1 25.6 -42.1C19.6 -42.1 14.8 -46.9 14.8 -52.8Z"/>
    <path class="pink2" fill="#e094b2" d="M23.3 -54.6C23.3 -58.6 26.6 -61.8 30.6 -61.8C34.5 -61.8 37.8 -58.6 37.8 -54.6C37.8 -50.7 34.5 -47.4 30.6 -47.4C26.6 -47.4 23.3 -50.7 23.3 -54.6Z"/>
    <path class="pink2" fill="#e094b2" d="M-4 -60.5C-4 -67.1 1.4 -72.5 8 -72.5C14.6 -72.5 20 -67.1 20 -60.5C20 -53.9 14.6 -48.5 8 -48.5C1.4 -48.5 -4 -53.9 -4 -60.5Z"/>
    <path class="pink2" fill="#e094b2" d="M5.5 -62.5C5.5 -66.9 9.1 -70.5 13.5 -70.5C17.9 -70.5 21.5 -66.9 21.5 -62.5C21.5 -58.1 17.9 -54.5 13.5 -54.5C9.1 -54.5 5.5 -58.1 5.5 -62.5Z"/>
    <path class="pink2" fill="#e094b2" d="M-21.2 -54.8C-21.2 -60.8 -16.4 -65.6 -10.4 -65.6C-4.4 -65.6 0.4 -60.8 0.4 -54.8C0.4 -48.9 -4.4 -44.1 -10.4 -44.1C-16.4 -44.1 -21.2 -48.9 -21.2 -54.8Z"/>
    <path class="pink2" fill="#e094b2" d="M-12.7 -56.6C-12.7 -60.6 -9.4 -63.8 -5.5 -63.8C-1.5 -63.8 1.7 -60.6 1.7 -56.6C1.7 -52.7 -1.5 -49.4 -5.5 -49.4C-9.4 -49.4 -12.7 -52.7 -12.7 -56.6Z"/>
    <path class="pink" fill="#f0b6c9" d="M12.5 -58.2C12.5 -63.5 16.8 -67.7 22 -67.7C27.2 -67.7 31.5 -63.5 31.5 -58.2C31.5 -53 27.2 -48.8 22 -48.8C16.8 -48.8 12.5 -53 12.5 -58.2Z"/>
    <path class="pink" fill="#f0b6c9" d="M6.8 -55.1C6.8 -58.8 9.8 -61.8 13.5 -61.8C17.1 -61.8 20.1 -58.8 20.1 -55.1C20.1 -51.4 17.1 -48.4 13.5 -48.4C9.8 -48.4 6.8 -51.4 6.8 -55.1Z"/>
    <path class="pink" fill="#f0b6c9" d="M23.9 -55.1C23.9 -58.8 26.9 -61.8 30.6 -61.8C34.2 -61.8 37.2 -58.8 37.2 -55.1C37.2 -51.4 34.2 -48.4 30.6 -48.4C26.9 -48.4 23.9 -51.4 23.9 -55.1Z"/>
    <path class="pink" fill="#f0b6c9" d="M13 -50.6C13 -53.6 15.4 -56 18.4 -56C21.4 -56 23.8 -53.6 23.8 -50.6C23.8 -47.6 21.4 -45.2 18.4 -45.2C15.4 -45.2 13 -47.6 13 -50.6Z"/>
    <path class="pink" fill="#f0b6c9" d="M20.7 -51C20.7 -54 23.1 -56.4 26.1 -56.4C29 -56.4 31.5 -54 31.5 -51C31.5 -48.1 29 -45.6 26.1 -45.6C23.1 -45.6 20.7 -48.1 20.7 -51Z"/>
    <path class="pink" fill="#f0b6c9" d="M-6.5 -66.5C-6.5 -72.3 -1.8 -77 4 -77C9.8 -77 14.5 -72.3 14.5 -66.5C14.5 -60.7 9.8 -56 4 -56C-1.8 -56 -6.5 -60.7 -6.5 -66.5Z"/>
    <path class="pink" fill="#f0b6c9" d="M-12.9 -63C-12.9 -67.1 -9.6 -70.4 -5.5 -70.4C-1.4 -70.4 1.9 -67.1 1.9 -63C1.9 -58.9 -1.4 -55.6 -5.5 -55.6C-9.6 -55.6 -12.9 -58.9 -12.9 -63Z"/>
    <path class="pink" fill="#f0b6c9" d="M6.1 -63C6.1 -67.1 9.4 -70.4 13.5 -70.4C17.6 -70.4 20.9 -67.1 20.9 -63C20.9 -58.9 17.6 -55.6 13.5 -55.6C9.4 -55.6 6.1 -58.9 6.1 -63Z"/>
    <path class="pink" fill="#f0b6c9" d="M-6 -58C-6 -61.3 -3.3 -64 0 -64C3.3 -64 6 -61.3 6 -58C6 -54.7 3.3 -52 0 -52C-3.3 -52 -6 -54.7 -6 -58Z"/>
    <path class="pink" fill="#f0b6c9" d="M2.5 -58.5C2.5 -61.8 5.2 -64.5 8.5 -64.5C11.8 -64.5 14.5 -61.8 14.5 -58.5C14.5 -55.2 11.8 -52.5 8.5 -52.5C5.2 -52.5 2.5 -55.2 2.5 -58.5Z"/>
    <path class="pink" fill="#f0b6c9" d="M-23.5 -60.2C-23.5 -65.5 -19.2 -69.7 -14 -69.7C-8.8 -69.7 -4.5 -65.5 -4.5 -60.2C-4.5 -55 -8.8 -50.8 -14 -50.8C-19.2 -50.8 -23.5 -55 -23.5 -60.2Z"/>
    <path class="pink" fill="#f0b6c9" d="M-29.2 -57.1C-29.2 -60.8 -26.2 -63.8 -22.5 -63.8C-18.9 -63.8 -15.9 -60.8 -15.9 -57.1C-15.9 -53.4 -18.9 -50.4 -22.5 -50.4C-26.2 -50.4 -29.2 -53.4 -29.2 -57.1Z"/>
    <path class="pink" fill="#f0b6c9" d="M-12.1 -57.1C-12.1 -60.8 -9.1 -63.8 -5.5 -63.8C-1.8 -63.8 1.2 -60.8 1.2 -57.1C1.2 -53.4 -1.8 -50.4 -5.5 -50.4C-9.1 -50.4 -12.1 -53.4 -12.1 -57.1Z"/>
    <path class="pink" fill="#f0b6c9" d="M-23 -52.6C-23 -55.6 -20.6 -58 -17.6 -58C-14.6 -58 -12.2 -55.6 -12.2 -52.6C-12.2 -49.6 -14.6 -47.2 -17.6 -47.2C-20.6 -47.2 -23 -49.6 -23 -52.6Z"/>
    <path class="pink" fill="#f0b6c9" d="M-15.3 -53C-15.3 -56 -12.9 -58.4 -9.9 -58.4C-7 -58.4 -4.5 -56 -4.5 -53C-4.5 -50.1 -7 -47.6 -9.9 -47.6C-12.9 -47.6 -15.3 -50.1 -15.3 -53Z"/>
    <path fill="rgba(255,255,255,0.12)" d="M13.1 -60.9C13.1 -63.1 14.9 -64.9 17.1 -64.9C19.2 -64.9 21 -63.1 21 -60.9C21 -58.8 19.2 -57 17.1 -57C14.9 -57 13.1 -58.8 13.1 -60.9Z"/>
    <path fill="rgba(255,255,255,0.12)" d="M-5.9 -69.5C-5.9 -71.9 -3.9 -73.9 -1.5 -73.9C0.9 -73.9 2.9 -71.9 2.9 -69.5C2.9 -67.1 0.9 -65.1 -1.5 -65.1C-3.9 -65.1 -5.9 -67.1 -5.9 -69.5Z"/>
    <path fill="rgba(255,255,255,0.12)" d="M-22.9 -62.9C-22.9 -65.1 -21.1 -66.9 -18.9 -66.9C-16.8 -66.9 -15 -65.1 -15 -62.9C-15 -60.8 -16.8 -59 -18.9 -59C-21.1 -59 -22.9 -60.8 -22.9 -62.9Z"/>
  </g>
</svg>
