<svg xmlns="http://www.w3.org/2000/svg" viewBox="-152 -112 304 114">
  <g class="variant">
    <path class="rock" fill="#8c9cb2" d="M-150 0L-95 -78L-55 -95L-28 -55L-30 0Z"/>
    <path class="rock" fill="#8c9cb2" d="M150 0L100 -85L55 -100L30 -60L32 0Z"/>
    <path class="snow" fill="#eef3f8" d="M-55 -95Q0 -110 55 -100L30 -60Q24 -30 26 0L-24 0Q-26 -35 -28 -55Z"/>
    <path class="shadow" fill="none" stroke="#5c6a7e" stroke-width="1.5" stroke-opacity="0.3" d="M-24 -12Q0 -7 24 -12"/>
    <path class="shadow" fill="none" stroke="#5c6a7e" stroke-width="1.5" stroke-opacity="0.3" d="M-22 -27Q0 -22 22 -27"/>
    <path class="shadow" fill="none" stroke="#5c6a7e" stroke-width="1.5" stroke-opacity="0.3" d="M-20 -42Q0 -37 20 -42"/>
    <path class="shadow" fill="none" stroke="#5c6a7e" stroke-width="1.5" stroke-opacity="0.3" d="M-18 -57Q0 -52 18 -57"/>
    <path class="shadow" fill="none" stroke="#5c6a7e" stroke-width="1.5" stroke-opacity="0.3" d="M-16 -72Q0 -67 16 -72"/>
    <path fill="rgba(140,200,235,0.35)" d="M-24 0Q0 -10 26 0Z"/>
  </g>
</svg>
