<svg xmlns="http://www.w3.org/2000/svg" viewBox="-89 -100 154 112">
  <g class="variant">
    <path class="rock" fill="#8c9cb2" d="M-10 0Q-14 -72 16 -98Q45 -72 52 0Z"/>
    <path class="rock" fill="#8c9cb2" d="M-78 0Q-78 -50 -48 -55Q-18 -48 -12 0Z"/>
    <path class="green" fill="#2f6b46" d="M-3 0C-3 5.52 -21.8 10 -45 10C-68.2 10 -87 5.52 -87 0C-87 -5.52 -68.2 -10 -45 -10C-21.8 -10 -3 -5.52 -3 0L63 0C63 4.97 45.99 9 25 9C4.01 9 -13 4.97 -13 0C-13 -4.97 4.01 -9 25 -9C45.99 -9 63 -4.97 63 0"/>
  </g>
</svg>
